<?xml version="1.0" encoding="UTF-8"?>
<svg version="1.1" xmlns="http://www.w3.org/2000/svg" width="134" height="134">
<path d="M0 0 C2.43994141 1.14477539 2.43994141 1.14477539 4.8515625 2.59765625 C5.77251709 3.14462158 6.69347168 3.69158691 7.64233398 4.25512695 C8.62661377 4.85156006 9.61089355 5.44799316 10.625 6.0625 C12.75303549 7.32958856 14.88198246 8.59514725 17.01171875 9.859375 C18.13626465 10.52904297 19.26081055 11.19871094 20.41943359 11.88867188 C27.33273015 15.9829938 34.33854491 19.9197206 41.32672119 23.88430786 C43.09225161 24.8864138 44.85669883 25.89042741 46.62109375 26.89453125 C47.6361499 27.47050049 48.65120605 28.04646973 49.69702148 28.63989258 C52 30 52 30 53 31 C53.09417773 33.08619022 53.11742878 35.17560477 53.11352539 37.26391602 C53.11367142 37.91755127 53.11381744 38.57118652 53.1139679 39.24462891 C53.11326883 41.41442128 53.10547678 43.58412879 53.09765625 45.75390625 C53.09579205 47.25463311 53.09436816 48.75536057 53.09336853 50.25608826 C53.08954352 54.21318226 53.0797134 58.17023978 53.06866455 62.12731934 C53.05845006 66.16234849 53.05387083 70.19738353 53.04882812 74.23242188 C53.03809111 82.15496469 53.0210149 90.07747781 53 98 C52.25213226 98.4138092 51.50426453 98.82761841 50.73373413 99.25396729 C31.58085959 109.82838438 31.58085959 109.82838438 12.625 120.75 C11.64402344 121.32492188 10.66304688 121.89984375 9.65234375 122.4921875 C4.47800066 125.48506043 4.47800066 125.48506043 -0.48681641 128.80175781 C-3 130 -3 130 -5.47753906 129.36914062 C-6.72615723 128.69141602 -6.72615723 128.69141602 -8 128 C-9.28342285 127.33000977 -9.28342285 127.33000977 -10.59277344 126.64648438 C-11.50575195 126.13408203 -12.41873047 125.62167969 -13.359375 125.09375 C-14.38474365 124.51947266 -15.4101123 123.94519531 -16.46655273 123.35351562 C-17.55009033 122.74185547 -18.63362793 122.13019531 -19.75 121.5 C-20.86511963 120.87287109 -21.98023926 120.24574219 -23.12915039 119.59960938 C-32.15290952 114.51038337 -41.10479872 109.31008216 -50 104 C-51.06347656 103.36964844 -52.12695312 102.73929687 -53.22265625 102.08984375 C-59.85742188 98.14257812 -59.85742188 98.14257812 -61 97 C-61.16244662 94.98867596 -61.25473367 92.97165736 -61.31982422 90.95483398 C-61.36170868 89.65936142 -61.40359314 88.36388885 -61.44674683 87.02915955 C-61.58456419 81.85889919 -61.68222605 76.68793116 -61.75568962 71.51637173 C-61.81223407 67.59112529 -61.89356852 63.66998696 -62.03564453 59.74682617 C-62.17250596 55.95211391 -62.24458513 52.16111748 -62.27234268 48.36409187 C-62.29374 46.92161022 -62.33763814 45.47927029 -62.405056 44.0382061 C-62.61130288 39.41498665 -62.54162152 35.38504946 -61 31 C-57.04811729 27.2930723 -52.93202294 25.26054559 -48 23 C-45.94384812 21.8524033 -43.89537189 20.69079832 -41.859375 19.5078125 C-39.82451153 18.3773328 -37.78802612 17.24976808 -35.75 16.125 C-26.69983932 11.1262337 -26.69983932 11.1262337 -17.81640625 5.83984375 C-17.04651367 5.36724121 -16.27662109 4.89463867 -15.48339844 4.40771484 C-14.08046179 3.53837376 -12.68582809 2.65542196 -11.30175781 1.75634766 C-7.00301072 -0.89876084 -4.84338647 -1.19505671 0 0 Z " fill="#042767" transform="translate(71,3)"/>
<path d="M0 0 C3.13167502 1.51088101 6.13524479 3.16606207 9.15039062 4.89868164 C9.75294678 5.24387344 10.35550293 5.58906525 10.97631836 5.94471741 C12.89026661 7.0422289 14.80156693 8.14426344 16.71289062 9.24633789 C17.99658025 9.98295283 19.28043294 10.71928369 20.56445312 11.45532227 C23.95145378 13.39933277 27.33644634 15.34652221 30.71289062 17.30883789 C31.66059326 17.67605957 32.6082959 18.04328125 33.5847168 18.42163086 C36.15954239 20.70491661 36.07947902 21.3553548 36.28051758 24.68847656 C36.27972585 26.53477587 36.25146818 28.38119237 36.20117188 30.22680664 C36.19409714 31.19918777 36.1870224 32.17156891 36.17973328 33.17341614 C36.15172471 36.28183651 36.08897337 39.38846123 36.02539062 42.49633789 C36.00031615 44.60243168 35.9775015 46.70855369 35.95703125 48.81469727 C35.90187662 53.9801036 35.81555857 59.14416624 35.71289062 64.30883789 C34.9776416 64.73181152 34.24239258 65.15478516 33.48486328 65.59057617 C30.70742407 67.18896735 27.93046498 68.78818882 25.15380859 70.38793945 C23.96128635 71.07478609 22.76858366 71.76131954 21.57568359 72.44750977 C19.84227622 73.44469282 18.10961272 74.44316859 16.37695312 75.44165039 C15.24805664 76.08779297 14.11916016 76.73393555 12.95605469 77.3996582 C10.87771237 78.62313283 8.82404575 79.89015498 6.80566406 81.21020508 C5.50290527 82.05953613 5.50290527 82.05953613 4.17382812 82.92602539 C3.42665527 83.43504395 2.67948242 83.9440625 1.90966797 84.46850586 C-0.28710938 85.30883789 -0.28710938 85.30883789 -2.71118164 84.65039062 C-5.4826231 83.20701362 -8.2372823 81.75561875 -10.96289062 80.22680664 C-12.03861328 79.62416992 -13.11433594 79.0215332 -14.22265625 78.40063477 C-15.33705078 77.7722168 -16.45144531 77.14379883 -17.59960938 76.49633789 C-18.70240234 75.87952148 -19.80519531 75.26270508 -20.94140625 74.62719727 C-24.06744052 72.87101921 -27.18944463 71.11465902 -30.28710938 69.30883789 C-30.99044403 68.98729233 -31.69377869 68.66574677 -32.41842651 68.3344574 C-34.71737793 67.1731477 -36.45974943 66.12962566 -38.28710938 64.30883789 C-39.3801828 60.92327522 -39.22386601 57.72311093 -39.06835938 54.19555664 C-39.05703979 53.2260054 -39.04572021 52.25645416 -39.03405762 51.25752258 C-38.98936145 48.16842898 -38.88901472 45.08402169 -38.78710938 41.99633789 C-38.74697349 39.89939985 -38.71047291 37.80238885 -38.67773438 35.70532227 C-38.58964798 30.57136215 -38.45164905 25.44089368 -38.28710938 20.30883789 C-37.36236816 19.78397293 -37.36236816 19.78397293 -36.41894531 19.24850464 C-34.80542353 18.33227461 -33.19256247 17.41488077 -31.58007812 16.49682617 C-29.66842781 15.40861073 -27.75565617 14.32236288 -25.84179688 13.23803711 C-21.41537985 10.71876241 -17.02163173 8.17920129 -12.72851562 5.43774414 C-11.71930054 4.79953735 -11.71930054 4.79953735 -10.68969727 4.1484375 C-9.44845969 3.35603959 -8.21653001 2.54881152 -6.99584961 1.72509766 C-2.89802212 -0.87577932 -2.89802212 -0.87577932 0 0 Z " fill="#FBFCFD" transform="translate(68.287109375,24.691162109375)"/>
<path d="M0 0 C4.50386786 0.53486279 7.64107159 1.65303399 11.53515625 3.95703125 C12.59412109 4.57642578 13.65308594 5.19582031 14.74414062 5.83398438 C15.83919922 6.48689453 16.93425781 7.13980469 18.0625 7.8125 C29.65758215 14.63695171 41.31493486 21.32281992 53 28 C53 48.46 53 68.92 53 90 C48.83375 92.371875 44.6675 94.74375 40.375 97.1875 C30.06161998 103.06085992 19.80314655 109.01088966 9.66748047 115.18823242 C8.82717285 115.69330322 7.98686523 116.19837402 7.12109375 116.71875 C6.02945923 117.38293945 6.02945923 117.38293945 4.91577148 118.06054688 C3 119 3 119 0 119 C-0.1081866 116.41554227 -0.18737237 113.83562648 -0.25 111.25 C-0.28351563 110.52039063 -0.31703125 109.79078125 -0.3515625 109.0390625 C-0.45126298 103.55553593 -0.45126298 103.55553593 1.62817383 100.99560547 C4.38244173 98.67822144 7.209514 96.95860628 10.33984375 95.1796875 C11.2458004 94.66258713 11.2458004 94.66258713 12.1700592 94.13504028 C13.44162432 93.41100919 14.71497249 92.69010153 15.98999023 91.97216797 C17.93187495 90.87816898 19.86764941 89.77394215 21.80273438 88.66796875 C26.8020648 85.82818162 31.64618351 83.1415266 37 81 C37 66.48 37 51.96 37 37 C35.35 36.34 33.7 35.68 32 35 C28.1967857 33.01272168 24.48107451 30.86917447 20.75 28.75 C19.75097656 28.18925781 18.75195312 27.62851562 17.72265625 27.05078125 C15.74538118 25.93161771 13.77630883 24.79782463 11.81616211 23.64892578 C9.98888718 22.57901552 8.14377003 21.53880532 6.27954102 20.53466797 C0.40230635 17.13671982 0.40230635 17.13671982 -0.69677734 14.03125 C-0.88673932 11.82300573 -0.795521 9.82774555 -0.5625 7.625 C-0.52189453 6.88894531 -0.48128906 6.15289062 -0.43945312 5.39453125 C-0.33419633 3.59347059 -0.17275926 1.79584318 0 0 Z " fill="#042766" transform="translate(67,8)"/>
<path d="M0 0 C2.43994141 1.14477539 2.43994141 1.14477539 4.8515625 2.59765625 C5.77251709 3.14462158 6.69347168 3.69158691 7.64233398 4.25512695 C8.62661377 4.85156006 9.61089355 5.44799316 10.625 6.0625 C12.75303549 7.32958856 14.88198246 8.59514725 17.01171875 9.859375 C18.13626465 10.52904297 19.26081055 11.19871094 20.41943359 11.88867188 C27.33273015 15.9829938 34.33854491 19.9197206 41.32672119 23.88430786 C43.09225161 24.8864138 44.85669883 25.89042741 46.62109375 26.89453125 C47.6361499 27.47050049 48.65120605 28.04646973 49.69702148 28.63989258 C52 30 52 30 53 31 C53.09417773 33.08619022 53.11742878 35.17560477 53.11352539 37.26391602 C53.11367142 37.91755127 53.11381744 38.57118652 53.1139679 39.24462891 C53.11326883 41.41442128 53.10547678 43.58412879 53.09765625 45.75390625 C53.09579205 47.25463311 53.09436816 48.75536057 53.09336853 50.25608826 C53.08954352 54.21318226 53.0797134 58.17023978 53.06866455 62.12731934 C53.05845006 66.16234849 53.05387083 70.19738353 53.04882812 74.23242188 C53.03809111 82.15496469 53.0210149 90.07747781 53 98 C52.25213226 98.4138092 51.50426453 98.82761841 50.73373413 99.25396729 C31.58085959 109.82838438 31.58085959 109.82838438 12.625 120.75 C11.64402344 121.32492188 10.66304688 121.89984375 9.65234375 122.4921875 C4.47800066 125.48506043 4.47800066 125.48506043 -0.48681641 128.80175781 C-3 130 -3 130 -5.47753906 129.36914062 C-6.72615723 128.69141602 -6.72615723 128.69141602 -8 128 C-9.28342285 127.33000977 -9.28342285 127.33000977 -10.59277344 126.64648438 C-11.50575195 126.13408203 -12.41873047 125.62167969 -13.359375 125.09375 C-14.38474365 124.51947266 -15.4101123 123.94519531 -16.46655273 123.35351562 C-17.55009033 122.74185547 -18.63362793 122.13019531 -19.75 121.5 C-20.86511963 120.87287109 -21.98023926 120.24574219 -23.12915039 119.59960938 C-32.15290952 114.51038337 -41.10479872 109.31008216 -50 104 C-51.06347656 103.36964844 -52.12695312 102.73929687 -53.22265625 102.08984375 C-59.85742188 98.14257812 -59.85742188 98.14257812 -61 97 C-61.16244662 94.98867596 -61.25473367 92.97165736 -61.31982422 90.95483398 C-61.36170868 89.65936142 -61.40359314 88.36388885 -61.44674683 87.02915955 C-61.58456419 81.85889919 -61.68222605 76.68793116 -61.75568962 71.51637173 C-61.81223407 67.59112529 -61.89356852 63.66998696 -62.03564453 59.74682617 C-62.17250596 55.95211391 -62.24458513 52.16111748 -62.27234268 48.36409187 C-62.29374 46.92161022 -62.33763814 45.47927029 -62.405056 44.0382061 C-62.61130288 39.41498665 -62.54162152 35.38504946 -61 31 C-57.04811729 27.2930723 -52.93202294 25.26054559 -48 23 C-45.94384812 21.8524033 -43.89537189 20.69079832 -41.859375 19.5078125 C-39.82451153 18.3773328 -37.78802612 17.24976808 -35.75 16.125 C-26.69983932 11.1262337 -26.69983932 11.1262337 -17.81640625 5.83984375 C-17.04651367 5.36724121 -16.27662109 4.89463867 -15.48339844 4.40771484 C-14.08046179 3.53837376 -12.68582809 2.65542196 -11.30175781 1.75634766 C-7.00301072 -0.89876084 -4.84338647 -1.19505671 0 0 Z M-7.54174805 3.91186523 C-8.43933838 4.45528564 -9.33692871 4.99870605 -10.26171875 5.55859375 C-11.82116211 6.48188477 -11.82116211 6.48188477 -13.41210938 7.42382812 C-14.49298828 8.08833984 -15.57386719 8.75285156 -16.6875 9.4375 C-18.77408188 10.68729663 -20.86136295 11.93592644 -22.94921875 13.18359375 C-26.93435547 15.56771484 -26.93435547 15.56771484 -31 18 C-43.87 25.425 -43.87 25.425 -57 33 C-57 53.46 -57 73.92 -57 95 C-49.41 99.29 -41.82 103.58 -34 108 C-13.48781701 119.81004475 -13.48781701 119.81004475 -7.0078125 124.26953125 C-4.10093146 125.32709303 -2.77846332 124.25833294 0 123 C1.77810043 122.07128577 3.54036445 121.11186423 5.2890625 120.12890625 C6.81225098 119.27486206 6.81225098 119.27486206 8.36621094 118.40356445 C9.44161133 117.79601318 10.51701172 117.18846191 11.625 116.5625 C12.73133789 115.94012451 13.83767578 115.31774902 14.97753906 114.67651367 C24.69687467 109.19731173 34.38656646 103.66339577 44 98 C44.85279037 97.60614105 45.70558075 97.2122821 46.58421326 96.80648804 C49.26237744 95.2133516 49.26237744 95.2133516 49.60127258 92.28547668 C49.59016953 91.19071518 49.57906647 90.09595367 49.56762695 88.96801758 C49.5672493 87.72695755 49.56687164 86.48589752 49.56648254 85.20722961 C49.54094935 83.85298665 49.51486937 82.49875391 49.48828125 81.14453125 C49.47895425 79.75877659 49.4718376 78.37300544 49.46684265 76.98722839 C49.44776316 73.34207536 49.39865665 69.69792056 49.34332275 66.05316162 C49.2921493 62.3331045 49.26933284 58.61288586 49.24414062 54.89257812 C49.19053671 47.59459727 49.10521504 40.29743857 49 33 C48.3120636 32.61648376 47.6241272 32.23296753 46.91534424 31.83782959 C33.78015898 24.51077364 20.68307315 17.14776218 7.75 9.46875 C6.79609375 8.90671875 5.8421875 8.3446875 4.859375 7.765625 C3.62912598 7.03520996 3.62912598 7.03520996 2.37402344 6.29003906 C-2.3473572 3.38480518 -2.3473572 3.38480518 -7.54174805 3.91186523 Z " fill="#FAFBFC" transform="translate(71,3)"/>
<path d="M0 0 C1.68640266 0.86031427 3.34620349 1.77371543 4.984375 2.72265625 C5.91894531 3.26083984 6.85351562 3.79902344 7.81640625 4.35351562 C8.78449219 4.91748047 9.75257812 5.48144531 10.75 6.0625 C11.73355469 6.63033203 12.71710938 7.19816406 13.73046875 7.78320312 C16.15619626 9.1844729 18.57922121 10.59020387 21 12 C17.86448605 15.23391929 15.34865495 17.55407223 11 19 C8 17.7265625 8 17.7265625 5 15.625 C0.8278774 12.6356609 0.8278774 12.6356609 -4.109375 12.11328125 C-6.89352003 12.96733655 -8.86640163 13.9155649 -11.25 15.5625 C-14.81303116 18 -14.81303116 18 -17 18 C-17 23.94 -17 29.88 -17 36 C-15.35 36.66 -13.7 37.32 -12 38 C-10.8411625 38.70831752 -9.69381398 39.43600367 -8.5625 40.1875 C-4.43296297 42.28849252 -3.36866786 42.11794482 1 41 C4.01483203 39.62790721 4.01483203 39.62790721 6.875 37.9375 C7.84179688 37.38964844 8.80859375 36.84179688 9.8046875 36.27734375 C10.52914062 35.85582031 11.25359375 35.43429688 12 35 C14.97 36.98 17.94 38.96 21 41 C16.77627133 44.57135078 12.28434108 47.46134487 7.5625 50.3125 C6.82451172 50.77978516 6.08652344 51.24707031 5.32617188 51.72851562 C2.15178264 53.63879252 -0.15735297 54.95103538 -3.890625 55.16796875 C-8.71460228 53.35594713 -12.94781532 50.7158038 -17.3125 48 C-18.23095703 47.44054687 -19.14941406 46.88109375 -20.09570312 46.3046875 C-26.79526786 42.20473214 -26.79526786 42.20473214 -28 41 C-30.85215324 18.19801457 -30.85215324 18.19801457 -26.89697266 10.98974609 C-23.60756018 7.68437113 -19.32593614 6.43729696 -15 5 C-12.95952409 3.84657827 -10.93658208 2.66126241 -8.9375 1.4375 C-5.35467881 -0.6367649 -3.91179504 -1.31613445 0 0 Z " fill="#083478" transform="translate(70,40)"/>
</svg>
